<svg width="0" height="0" class="hidden">
  <symbol fill="none" xmlns="http://www.w3.org/2000/svg" xmlns:xlink="http://www.w3.org/1999/xlink" viewBox="0 0 60 60" id="logo">
    <desc>Created with Pixso.</desc>
    <defs>
      <clipPath id="clip25_2">
        <rect id="лого макет на стажировка-02 1" rx="0.000000" width="59.000000" height="59.000000" transform="translate(0.500000 0.500000)" fill="white" fill-opacity="0"></rect>
      </clipPath>
      <linearGradient x1="52.666317" y1="7.444836" x2="10.243156" y2="49.770161" id="paint_linear_25_3_0" gradientUnits="userSpaceOnUse">
        <stop stop-color="#1869C9"></stop>
        <stop offset="1.000000" stop-color="#13306F"></stop>
      </linearGradient>
    </defs>
    <rect id="лого макет на стажировка-02 1" rx="0.000000" width="59.000000" height="59.000000" transform="translate(0.500000 0.500000)" fill="#FFFFFF" fill-opacity="0"></rect>
    <g clip-path="url(#clip25_2)">
      <path id="Vector" d="M30.49 6.22C30.49 6.83 30.48 7.44 30.49 8.05C20.79 7.8 11.66 14.07 8.84 23.41C4.43 37.03 14.18 50.28 27.38 53.75C21.57 53.19 16 50.29 12.13 45.97C3.06 36.25 4.32 19.9 14.75 11.66C19.05 7.92 24.88 6.23 30.49 6.22ZM25.94 30.85C25.1 30.09 23.11 30.54 22 30.46C21.89 29.42 22.3 27.4 21.74 26.57C21.37 26.18 20.72 26.23 20.22 26.24C19.6 26.24 18.26 26.07 17.8 26.52C17.05 27.39 17.48 29.21 17.43 30.32C14 30.29 13.09 29.68 13.39 33.72C13.41 34.11 13.51 34.55 13.81 34.83C14.37 35.28 16.56 35.1 17.32 35.05L17.42 35.11C17.63 36.38 16.82 38.63 18.16 39.39C18.76 39.44 20.54 39.48 21.09 39.39C22.13 39.23 22.06 38.09 22.01 37.28L21.98 35.12C23.12 35.06 25 35.47 25.93 34.8C26.47 34.32 26.22 33.52 26.24 32.89C26.22 32.22 26.45 31.4 25.94 30.85ZM55.78 29.79C55.9 36.11 53.32 41.71 49.47 46.59C49.46 46.59 49.46 46.61 49.45 46.61C37.46 60.52 14.2 57.28 6.74 40.47C-0.94 23.46 11.9 4.43 30.5 4.7L30.5 0.01C10.03 0.04 -4.34 18.79 1.18 38.45C7.88 61.34 38.04 67.69 53.14 49.14C57.64 43.73 59.93 36.83 59.98 29.83C58.58 29.83 57.19 29.78 55.78 29.79ZM49.45 46.6C49.46 46.6 49.46 46.59 49.47 46.58C49.48 46.57 49.48 46.56 49.45 46.6ZM28.56 11.55C29.39 11.12 30.78 10.63 31.35 9.9C32.01 9.03 32.13 7.68 32.55 6.67C32.98 5.51 33.55 4.4 34.23 3.38C35.02 2.2 35.96 1.12 37.02 0.19C35.2 3.08 36.21 6.62 37.83 9.27C38.71 10.43 39.8 11.23 41.27 11.33C39.97 10.15 39.08 9.06 38.49 7.41C41.92 8.31 46.06 9.86 47.94 13.07C48.87 14.66 48.8 16.17 50.02 17.66C51.05 18.6 52.48 19.14 53.56 20.02C53.64 20.11 53.64 20.14 53.65 20.26C52.99 22.58 50.87 25.28 48.38 25.87C47.26 26.11 46.38 25.65 45.31 25.39C44.54 25.21 43.76 25.07 42.97 24.97C41.74 24.8 40.48 24.85 39.25 24.73C39.27 24.73 39.28 24.72 39.29 24.71C35.56 24.87 33.06 22.74 32.35 19.12C32.16 21.92 33.64 24.78 36.36 25.73C37.6 26.33 40.98 26.05 42.04 26.23C39.62 26.82 38.4 29.56 39.33 31.82C39.78 33.03 40.49 34.15 41.05 35.31C44.6 41.82 41.04 49.74 35.06 53.39C41.51 47.95 40.45 39.51 33.81 34.78C32.17 33.27 30.26 32.04 28.6 30.55C25.71 28.1 21.91 23.78 22.38 19.71C22.66 16 25.39 13.2 28.56 11.55ZM40.86 14.9C42.41 15.39 42.75 16.7 44.5 16.93C45.45 16.98 46.39 16.83 47.34 16.86C47.29 16.82 47.24 16.79 47.19 16.75C46.76 16.45 46.44 16.04 46.24 15.56C45.87 14.66 45.64 13.97 44.71 13.79C44.25 13.7 43.78 13.76 43.35 13.95C42.53 14.32 41.86 14.84 40.86 14.9ZM46.46 1.64C43.57 2.26 40.65 3.97 38.94 6.43C38.94 6.43 41.58 7.38 42.69 7.87C43.39 4.94 44.05 3.53 46.46 1.64ZM45.28 15.28C45.53 14.46 44.24 14.21 44.03 14.99C43.85 15.83 45.03 16.1 45.28 15.28Z" fill="url(#paint_linear_25_3_0)" fill-opacity="1.000000" fill-rule="nonzero"></path>
      <path id="Vector" d="M30.49 6.22C30.49 6.83 30.48 7.44 30.49 8.05C20.79 7.8 11.66 14.07 8.84 23.41C4.43 37.03 14.18 50.28 27.38 53.75C21.57 53.19 16 50.29 12.13 45.97C3.06 36.25 4.32 19.9 14.75 11.66C19.05 7.92 24.88 6.23 30.49 6.22ZM25.94 30.85C25.1 30.09 23.11 30.54 22 30.46C21.89 29.42 22.3 27.4 21.74 26.57C21.37 26.18 20.72 26.23 20.22 26.24C19.6 26.24 18.26 26.07 17.8 26.52C17.05 27.39 17.48 29.21 17.43 30.32C14 30.29 13.09 29.68 13.39 33.72C13.41 34.11 13.51 34.55 13.81 34.83C14.37 35.28 16.56 35.1 17.32 35.05L17.42 35.11C17.63 36.38 16.82 38.63 18.16 39.39C18.76 39.44 20.54 39.48 21.09 39.39C22.13 39.23 22.06 38.09 22.01 37.28L21.98 35.12C23.12 35.06 25 35.47 25.93 34.8C26.47 34.32 26.22 33.52 26.24 32.89C26.22 32.22 26.45 31.4 25.94 30.85ZM55.78 29.79C55.9 36.11 53.32 41.71 49.47 46.59C49.46 46.59 49.46 46.61 49.45 46.61C37.46 60.52 14.2 57.28 6.74 40.47C-0.94 23.46 11.9 4.43 30.5 4.7L30.5 0.01C10.03 0.04 -4.34 18.79 1.18 38.45C7.88 61.34 38.04 67.69 53.14 49.14C57.64 43.73 59.93 36.83 59.98 29.83C58.58 29.83 57.19 29.78 55.78 29.79ZM49.45 46.6C49.46 46.6 49.46 46.59 49.47 46.58C49.48 46.57 49.48 46.56 49.45 46.6ZM28.56 11.55C29.39 11.12 30.78 10.63 31.35 9.9C32.01 9.03 32.13 7.68 32.55 6.67C32.98 5.51 33.55 4.4 34.23 3.38C35.02 2.2 35.96 1.12 37.02 0.19C35.2 3.08 36.21 6.62 37.83 9.27C38.71 10.43 39.8 11.23 41.27 11.33C39.97 10.15 39.08 9.06 38.49 7.41C41.92 8.31 46.06 9.86 47.94 13.07C48.87 14.66 48.8 16.17 50.02 17.66C51.05 18.6 52.48 19.14 53.56 20.02C53.64 20.11 53.64 20.14 53.65 20.26C52.99 22.58 50.87 25.28 48.38 25.87C47.26 26.11 46.38 25.65 45.31 25.39C44.54 25.21 43.76 25.07 42.97 24.97C41.74 24.8 40.48 24.85 39.25 24.73C39.27 24.73 39.28 24.72 39.29 24.71C35.56 24.87 33.06 22.74 32.35 19.12C32.16 21.92 33.64 24.78 36.36 25.73C37.6 26.33 40.98 26.05 42.04 26.23C39.62 26.82 38.4 29.56 39.33 31.82C39.78 33.03 40.49 34.15 41.05 35.31C44.6 41.82 41.04 49.74 35.06 53.39C41.51 47.95 40.45 39.51 33.81 34.78C32.17 33.27 30.26 32.04 28.6 30.55C25.71 28.1 21.91 23.78 22.38 19.71C22.66 16 25.39 13.2 28.56 11.55ZM40.86 14.9C42.41 15.39 42.75 16.7 44.5 16.93C45.45 16.98 46.39 16.83 47.34 16.86C47.29 16.82 47.24 16.79 47.19 16.75C46.76 16.45 46.44 16.04 46.24 15.56C45.87 14.66 45.64 13.97 44.71 13.79C44.25 13.7 43.78 13.76 43.35 13.95C42.53 14.32 41.86 14.84 40.86 14.9ZM46.46 1.64C43.57 2.26 40.65 3.97 38.94 6.43C38.94 6.43 41.58 7.38 42.69 7.87C43.39 4.94 44.05 3.53 46.46 1.64ZM45.28 15.28C45.53 14.46 44.24 14.21 44.03 14.99C43.85 15.83 45.03 16.1 45.28 15.28Z" fill="#487CAB" fill-opacity="1.000000" fill-rule="nonzero"></path>
    </g>
  </symbol>
  <symbol fill="none" xmlns="http://www.w3.org/2000/svg" xmlns:xlink="http://www.w3.org/1999/xlink" viewBox="0 0 18.0002 18" id="phone">
    <desc>Created with Pixso.</desc>
    <defs></defs>
    <path id="Vector" d="M13.68 11.9C13.09 11.32 12.36 11.32 11.77 11.9C11.33 12.34 10.88 12.79 10.44 13.24C10.32 13.36 10.22 13.39 10.08 13.3C9.79 13.15 9.48 13.02 9.2 12.85C7.91 12.03 6.83 10.99 5.87 9.81C5.39 9.23 4.97 8.6 4.68 7.9C4.62 7.76 4.63 7.66 4.74 7.55C5.19 7.12 5.62 6.67 6.06 6.23C6.67 5.62 6.67 4.9 6.06 4.28C5.71 3.93 5.36 3.58 5.01 3.23C4.65 2.87 4.3 2.51 3.93 2.15C3.35 1.58 2.61 1.58 2.03 2.16C1.58 2.6 1.15 3.05 0.69 3.49C0.27 3.89 0.05 4.38 0.01 4.95C-0.06 5.88 0.17 6.76 0.49 7.62C1.15 9.4 2.15 10.97 3.37 12.42C5.01 14.37 6.97 15.92 9.27 17.04C10.3 17.54 11.38 17.93 12.54 17.99C13.34 18.03 14.04 17.83 14.6 17.21C14.98 16.78 15.41 16.39 15.81 15.98C16.41 15.37 16.42 14.64 15.82 14.04C15.11 13.33 14.4 12.61 13.68 11.9Z" fill="#487CAB" fill-opacity="1.000000" fill-rule="evenodd"></path>
    <path id="Vector" d="M12.96 8.92L14.35 8.68C14.13 7.41 13.53 6.26 12.62 5.35C11.66 4.39 10.44 3.78 9.1 3.59L8.9 4.98C9.94 5.13 10.88 5.6 11.63 6.34C12.33 7.04 12.8 7.94 12.96 8.92Z" fill="#487CAB" fill-opacity="1.000000" fill-rule="evenodd"></path>
    <path id="Vector" d="M15.13 2.91C13.53 1.31 11.51 0.31 9.28 0L9.09 1.38C11.01 1.65 12.76 2.53 14.14 3.9C15.44 5.21 16.3 6.86 16.61 8.68L18 8.44C17.63 6.34 16.64 4.43 15.13 2.91Z" fill="#487CAB" fill-opacity="1.000000" fill-rule="evenodd"></path>
  </symbol>
  <symbol fill="none" xmlns="http://www.w3.org/2000/svg" xmlns:xlink="http://www.w3.org/1999/xlink" viewBox="0 0 14.0869 18" id="target">
    <desc>Created with Pixso.</desc>
    <defs>
      <clipPath id="clip16_60">
        <rect id="OBJECTS" rx="0.000000" width="13.086957" height="17.000000" transform="translate(0.500000 0.500000)" fill="white" fill-opacity="0"></rect>
      </clipPath>
    </defs>
    <rect id="OBJECTS" rx="0.000000" width="13.086957" height="17.000000" transform="translate(0.500000 0.500000)" fill="#FFFFFF" fill-opacity="0"></rect>
    <g clip-path="url(#clip16_60)">
      <path id="Vector" d="M7.04 0C3.16 0 0 3.11 0 6.93C0 9.66 1.16 12.43 3.35 14.93C4.99 16.79 6.62 17.85 6.69 17.89C6.8 17.96 6.91 18 7.03 18C7.15 18 7.27 17.96 7.38 17.89C7.45 17.85 9.08 16.79 10.72 14.93C12.91 12.43 14.07 9.66 14.07 6.93C14.08 3.11 10.92 0 7.04 0ZM7.04 9.51C5.54 9.51 4.33 8.31 4.33 6.84C4.33 5.37 5.54 4.18 7.04 4.18C8.53 4.18 9.74 5.37 9.74 6.84C9.74 8.31 8.53 9.51 7.04 9.51Z" fill="#487CAB" fill-opacity="1.000000" fill-rule="nonzero"></path>
    </g>
  </symbol>
  <symbol fill="none" xmlns="http://www.w3.org/2000/svg" xmlns:xlink="http://www.w3.org/1999/xlink" viewBox="0 0 35 35" id="tg">
    <desc>Created with Pixso.</desc>
    <defs>
      <filter id="filter_16_75_dd" x="0.000000" y="0.000000" width="35.000000" height="35.000000" filterUnits="userSpaceOnUse" color-interpolation-filters="sRGB">
        <feFlood flood-opacity="0" result="BackgroundImageFix"></feFlood>
        <feBlend mode="normal" in="SourceGraphic" in2="BackgroundImageFix" result="shape"></feBlend>
        <feColorMatrix in="SourceAlpha" type="matrix" values="0 0 0 0 0 0 0 0 0 0 0 0 0 0 0 0 0 0 127 0" result="hardAlpha"></feColorMatrix>
        <feOffset dx="2.08571" dy="2.08571"></feOffset>
        <feGaussianBlur stdDeviation="1.04286"></feGaussianBlur>
        <feComposite in2="hardAlpha" operator="arithmetic" k2="-1" k3="1"></feComposite>
        <feColorMatrix type="matrix" values="0 0 0 0 1 0 0 0 0 1 0 0 0 0 1 0 0 0 0.5 0"></feColorMatrix>
        <feBlend mode="normal" in2="shape" result="effect_innerShadow_1"></feBlend>
      </filter>
      <linearGradient x1="8.034203" y1="31.633989" x2="37.955254" y2="6.285219" id="paint_linear_16_75_0" gradientUnits="userSpaceOnUse">
        <stop stop-color="#006EAC"></stop>
        <stop offset="1.000000" stop-color="#41B4F2"></stop>
      </linearGradient>
    </defs>
    <g filter="url(#filter_16_75_dd)">
      <circle id="Ellipse 1139" cx="17.500000" cy="17.500000" r="17.500000" fill="url(#paint_linear_16_75_0)" fill-opacity="1.000000"></circle>
    </g>
    <path id="Vector" d="M25.16 8.56C22.21 9.8 9.54 15.09 6.04 16.53C3.69 17.45 5.06 18.32 5.06 18.32C5.06 18.32 7.07 19.01 8.78 19.53C10.5 20.05 11.42 19.47 11.42 19.47L19.49 13.99C22.35 12.02 21.67 13.64 20.98 14.33C19.49 15.84 17.03 18.2 14.97 20.11C14.05 20.92 14.51 21.61 14.91 21.96C16.4 23.23 20.47 25.83 20.69 26C21.9 26.86 24.28 28.11 24.65 25.48L26.08 16.41C26.54 13.35 26.99 10.52 27.05 9.71C27.22 7.75 25.16 8.56 25.16 8.56L25.16 8.56Z" fill="#FFFFFF" fill-opacity="1.000000" fill-rule="nonzero"></path>
  </symbol>
  <symbol fill="none" xmlns="http://www.w3.org/2000/svg" xmlns:xlink="http://www.w3.org/1999/xlink" viewBox="0 0 15.5 15.501" id="time">
    <desc>Created with Pixso.</desc>
    <defs></defs>
    <path id="Symbol" d="M15.5 7.75C15.5 12.03 12 15.5 7.75 15.5C5.9 15.53 4.18 14.87 2.87 13.81C2.53 13.53 2.5 13 2.81 12.68L3.15 12.34C3.43 12.06 3.87 12.03 4.15 12.28C5.15 13.06 6.37 13.5 7.75 13.5C10.9 13.5 13.5 10.93 13.5 7.75C13.5 4.59 10.9 2 7.75 2C6.21 2 4.81 2.59 3.78 3.56L5.37 5.15C5.68 5.46 5.46 6 5.03 6L0.5 6C0.21 6 0 5.78 0 5.5L0 0.96C0 0.53 0.53 0.31 0.84 0.62L2.37 2.15C3.78 0.84 5.65 0 7.75 0C12 0 15.46 3.46 15.5 7.75ZM9.84 10.21C9.56 10.53 9.09 10.59 8.78 10.34L6.75 8.75L6.75 4.5C6.75 4.09 7.06 3.75 7.5 3.75L8 3.75C8.4 3.75 8.75 4.09 8.75 4.5L8.75 7.78L10 8.78C10.34 9.03 10.4 9.5 10.12 9.81L9.84 10.21Z" fill="#487CAB" fill-opacity="1.000000" fill-rule="nonzero"></path>
  </symbol>
  <symbol fill="none" xmlns="http://www.w3.org/2000/svg" xmlns:xlink="http://www.w3.org/1999/xlink" viewBox="0 0 35 35" id="vk">
    <defs>
      <filter id="filter_16_81_dd" x="0.000000" y="0.000000" width="35.000000" height="35.000000" filterUnits="userSpaceOnUse" color-interpolation-filters="sRGB">
        <feFlood flood-opacity="0" result="BackgroundImageFix"></feFlood>
        <feBlend mode="normal" in="SourceGraphic" in2="BackgroundImageFix" result="shape"></feBlend>
        <feColorMatrix in="SourceAlpha" type="matrix" values="0 0 0 0 0 0 0 0 0 0 0 0 0 0 0 0 0 0 127 0" result="hardAlpha"></feColorMatrix>
        <feOffset dx="2.08571" dy="2.08571"></feOffset>
        <feGaussianBlur stdDeviation="1.04286"></feGaussianBlur>
        <feComposite in2="hardAlpha" operator="arithmetic" k2="-1" k3="1"></feComposite>
        <feColorMatrix type="matrix" values="0 0 0 0 1 0 0 0 0 1 0 0 0 0 1 0 0 0 0.5 0"></feColorMatrix>
        <feBlend mode="normal" in2="shape" result="effect_innerShadow_1"></feBlend>
      </filter>
      <linearGradient x1="3.171865" y1="27.569836" x2="31.842190" y2="7.494667" id="paint_linear_16_81_0" gradientUnits="userSpaceOnUse">
        <stop stop-color="#0061C2"></stop>
        <stop offset="1.000000" stop-color="#4CBBFF"></stop>
      </linearGradient>
    </defs>
    <g filter="url(#filter_16_81_dd)">
      <path id="Vector" d="M0 17.5C0 27.16 7.83 35 17.5 35C27.16 35 35 27.16 35 17.5C35 7.83 27.16 0 17.5 0C7.83 0 0 7.83 0 17.5Z" fill="url(#paint_linear_16_81_0)" fill-opacity="1.000000" fill-rule="nonzero"></path>
    </g>
    <path id="Vector" d="M17.42 23.52L18.71 23.52C18.71 23.52 19.1 23.48 19.3 23.26C19.48 23.07 19.48 22.7 19.48 22.7C19.48 22.7 19.45 20.97 20.26 20.71C21.05 20.46 22.07 22.39 23.14 23.13C23.96 23.69 24.58 23.56 24.58 23.56L27.46 23.52C27.46 23.52 28.97 23.43 28.25 22.25C28.19 22.15 27.84 21.37 26.11 19.77C24.3 18.09 24.54 18.36 26.72 15.46C28.05 13.7 28.58 12.62 28.41 12.16C28.25 11.72 27.28 11.83 27.28 11.83L24.04 11.85C24.04 11.85 23.79 11.82 23.62 11.93C23.44 12.03 23.33 12.28 23.33 12.28C23.33 12.28 22.82 13.64 22.13 14.81C20.69 17.26 20.11 17.39 19.87 17.24C19.32 16.89 19.46 15.81 19.46 15.05C19.46 12.68 19.82 11.68 18.76 11.43C18.4 11.34 18.14 11.28 17.24 11.28C16.08 11.26 15.1 11.28 14.55 11.55C14.18 11.73 13.89 12.13 14.07 12.16C14.28 12.18 14.77 12.29 15.02 12.64C15.36 13.09 15.34 14.11 15.34 14.11C15.34 14.11 15.53 16.9 14.9 17.25C14.46 17.49 13.86 17 12.57 14.78C11.91 13.64 11.41 12.37 11.41 12.37C11.41 12.37 11.32 12.14 11.14 12.02C10.93 11.86 10.64 11.81 10.64 11.81L7.56 11.83C7.56 11.83 7.1 11.85 6.93 12.05C6.77 12.22 6.91 12.6 6.91 12.6C6.91 12.6 9.33 18.24 12.06 21.09C14.57 23.7 17.42 23.53 17.42 23.53L17.42 23.52Z" fill="#FFFFFF" fill-opacity="1.000000" fill-rule="nonzero"></path>
  </symbol>
  <symbol fill="none" xmlns="http://www.w3.org/2000/svg" xmlns:xlink="http://www.w3.org/1999/xlink" viewBox="0 0 35 35" id="wt">
    <desc>Created with Pixso.</desc>
    <defs>
      <filter id="filter_16_78_dd" x="0.000000" y="0.000000" width="35.000000" height="35.000000" filterUnits="userSpaceOnUse" color-interpolation-filters="sRGB">
        <feFlood flood-opacity="0" result="BackgroundImageFix"></feFlood>
        <feBlend mode="normal" in="SourceGraphic" in2="BackgroundImageFix" result="shape"></feBlend>
        <feColorMatrix in="SourceAlpha" type="matrix" values="0 0 0 0 0 0 0 0 0 0 0 0 0 0 0 0 0 0 127 0" result="hardAlpha"></feColorMatrix>
        <feOffset dx="2.08571" dy="2.08571"></feOffset>
        <feGaussianBlur stdDeviation="1.04286"></feGaussianBlur>
        <feComposite in2="hardAlpha" operator="arithmetic" k2="-1" k3="1"></feComposite>
        <feColorMatrix type="matrix" values="0 0 0 0 1 0 0 0 0 1 0 0 0 0 1 0 0 0 0.5 0"></feColorMatrix>
        <feBlend mode="normal" in2="shape" result="effect_innerShadow_1"></feBlend>
      </filter>
      <linearGradient x1="17.500000" y1="35.000000" x2="17.500000" y2="0.000000" id="paint_linear_16_78_0" gradientUnits="userSpaceOnUse">
        <stop stop-color="#20B038"></stop>
        <stop offset="1.000000" stop-color="#60D66A"></stop>
      </linearGradient>
    </defs>
    <g filter="url(#filter_16_78_dd)">
      <circle id="Ellipse 1139" cx="17.500000" cy="17.500000" r="17.500000" fill="url(#paint_linear_16_78_0)" fill-opacity="1.000000"></circle>
    </g>
    <path id="Vector" d="M28.46 16.53C28.46 22.05 23.95 26.53 18.38 26.53C16.61 26.53 14.95 26.08 13.51 25.29L7.93 27.06L9.75 21.7C8.83 20.19 8.3 18.42 8.3 16.53C8.3 11.01 12.82 6.53 18.38 6.53C23.95 6.53 28.46 11.01 28.46 16.53ZM18.38 8.12C13.71 8.12 9.91 11.89 9.91 16.53C9.91 18.37 10.51 20.07 11.52 21.46L10.46 24.58L13.72 23.55C15.06 24.43 16.66 24.94 18.38 24.94C23.05 24.94 26.85 21.17 26.85 16.53C26.85 11.89 23.05 8.12 18.38 8.12L18.38 8.12ZM23.47 18.83C23.41 18.73 23.24 18.67 23 18.55C22.75 18.43 21.53 17.83 21.31 17.75C21.08 17.67 20.92 17.63 20.75 17.87C20.59 18.12 20.12 18.67 19.97 18.83C19.83 19 19.68 19.02 19.44 18.9C19.19 18.77 18.39 18.51 17.45 17.68C16.71 17.03 16.22 16.23 16.07 15.98C15.93 15.74 16.06 15.6 16.18 15.48C16.29 15.37 16.43 15.19 16.55 15.05C16.68 14.91 16.72 14.81 16.8 14.64C16.88 14.48 16.84 14.34 16.78 14.22C16.72 14.09 16.22 12.89 16.02 12.39C15.81 11.91 15.61 11.92 15.46 11.92C15.32 11.92 15.05 11.97 15.05 11.97C15.05 11.97 14.56 12.03 14.33 12.27C14.1 12.52 13.47 13.11 13.47 14.32C13.47 15.52 14.35 16.69 14.47 16.85C14.6 17.02 16.18 19.57 18.69 20.55C21.21 21.53 21.21 21.21 21.66 21.16C22.11 21.12 23.12 20.57 23.33 20C23.53 19.43 23.53 18.94 23.47 18.83L23.47 18.83Z" fill="#FFFFFF" fill-opacity="1.000000" fill-rule="evenodd"></path>
  </symbol>


   <defs>
      <g id="img-lapkasvg">
        <path xmlns="http://www.w3.org/2000/svg" fill="#487CAB" fill-rule="evenodd" d="M3.52 5.62C3.52 7.02 2.73 8.16 1.76 8.16C0.79 8.16 0 7.02 0 5.62C0 4.22 0.79 3.08 1.76 3.08C2.73 3.08 3.52 4.22 3.52 5.62Z"/><path xmlns="http://www.w3.org/2000/svg" fill="#487CAB" fill-rule="evenodd" d="M7.05 2.53C7.05 3.93 6.26 5.07 5.29 5.07C4.31 5.07 3.52 3.93 3.52 2.53C3.52 1.13 4.31 0 5.29 0C6.26 0 7.05 1.13 7.05 2.53Z"/><path xmlns="http://www.w3.org/2000/svg" fill="#487CAB" d="M12.35 10.14C10.87 9.65 10.58 7.94 9.7 7.05C8.82 6.17 7.5 6.17 7.5 6.17C7.5 6.17 6.17 6.17 5.29 7.05C4.41 7.93 4.12 9.65 2.64 10.14C1.32 10.58 0.88 11.91 0.88 13.01C0.88 14.11 1.76 15 3.52 15C5.29 15 6.39 14.33 7.5 14.33C8.6 14.33 9.7 15 11.47 15C13.23 15 14.11 14.11 14.11 13.01C14.11 11.91 13.67 10.58 12.35 10.14Z"/><path xmlns="http://www.w3.org/2000/svg" fill="#487CAB" fill-rule="evenodd" d="M14.99 5.62C14.99 7.02 14.2 8.16 13.23 8.16C12.26 8.16 11.47 7.02 11.47 5.62C11.47 4.22 12.26 3.08 13.23 3.08C14.2 3.08 14.99 4.22 14.99 5.62Z"/><path xmlns="http://www.w3.org/2000/svg" fill="#487CAB" fill-rule="evenodd" d="M11.47 2.53C11.47 3.93 10.67 5.07 9.7 5.07C8.73 5.07 7.94 3.93 7.94 2.53C7.94 1.13 8.73 0 9.7 0C10.67 0 11.47 1.13 11.47 2.53Z"/>
      </g>
      <g id="img-timessvg">
        <path xmlns="http://www.w3.org/2000/svg" fill="#487CAB" d="M1.07 9.98C0.38 9.89 -0.09 9.25 0.01 8.57C0.71 3.68 5 0 9.99 0C12.48 0 14.81 0.91 16.63 2.53L17.74 1.42C18.26 0.89 19.16 1.26 19.16 2.01L19.16 5.83C19.16 6.29 18.79 6.66 18.33 6.66L14.51 6.66C13.76 6.66 13.39 5.76 13.92 5.24L14.86 4.3C13.51 3.14 11.81 2.5 9.99 2.5C6.24 2.5 3.01 5.26 2.48 8.92C2.39 9.54 1.86 10 1.25 10C1.19 10 1.13 9.99 1.07 9.98ZM18.92 10.01C18.24 9.91 17.61 10.39 17.51 11.07C16.98 14.73 13.75 17.5 9.99 17.5C8.18 17.5 6.48 16.85 5.13 15.69L6.07 14.75C6.6 14.23 6.23 13.33 5.48 13.33L1.66 13.33C1.2 13.33 0.83 13.7 0.83 14.16L0.83 17.98C0.83 18.73 1.73 19.1 2.25 18.57L3.36 17.46C5.18 19.08 7.51 20 9.99 20C14.99 20 19.28 16.31 19.98 11.42C20.08 10.74 19.6 10.1 18.92 10.01ZM9.99 5C9.3 5 8.74 5.55 8.74 6.25L8.74 9.77C8.74 10.19 8.96 10.59 9.31 10.82L11.81 12.44C12.03 12.58 12.26 12.64 12.49 12.64C12.9 12.64 13.3 12.44 13.54 12.07C13.92 11.49 13.75 10.72 13.18 10.34L11.25 9.09L11.25 6.25C11.25 5.55 10.69 5 10 5L9.99 5Z"/>
      </g>
	</defs>
</svg>