<svg width="60.000000" height="60.000000" viewBox="0 0 60 60" fill="none" xmlns="http://www.w3.org/2000/svg" xmlns:xlink="http://www.w3.org/1999/xlink">
	<desc>
			Created with Pixso.
	</desc>
	<defs>
		<clipPath id="clip25_2">
			<rect id="лого макет на стажировка-02 1" rx="0.000000" width="59.000000" height="59.000000" transform="translate(0.500000 0.500000)" fill="white" fill-opacity="0"/>
		</clipPath>
		<linearGradient x1="52.666317" y1="7.444836" x2="10.243156" y2="49.770161" id="paint_linear_25_3_0" gradientUnits="userSpaceOnUse">
			<stop stop-color="#1869C9"/>
			<stop offset="1.000000" stop-color="#13306F"/>
		</linearGradient>
	</defs>
	<rect id="лого макет на стажировка-02 1" rx="0.000000" width="59.000000" height="59.000000" transform="translate(0.500000 0.500000)" fill="#FFFFFF" fill-opacity="0"/>
	<g clip-path="url(#clip25_2)">
		<path id="Vector" d="M30.49 6.22C30.49 6.83 30.48 7.44 30.49 8.05C20.79 7.8 11.66 14.07 8.84 23.41C4.43 37.03 14.18 50.28 27.38 53.75C21.57 53.19 16 50.29 12.13 45.97C3.06 36.25 4.32 19.9 14.75 11.66C19.05 7.92 24.88 6.23 30.49 6.22ZM25.94 30.85C25.1 30.09 23.11 30.54 22 30.46C21.89 29.42 22.3 27.4 21.74 26.57C21.37 26.18 20.72 26.23 20.22 26.24C19.6 26.24 18.26 26.07 17.8 26.52C17.05 27.39 17.48 29.21 17.43 30.32C14 30.29 13.09 29.68 13.39 33.72C13.41 34.11 13.51 34.55 13.81 34.83C14.37 35.28 16.56 35.1 17.32 35.05L17.42 35.11C17.63 36.38 16.82 38.63 18.16 39.39C18.76 39.44 20.54 39.48 21.09 39.39C22.13 39.23 22.06 38.09 22.01 37.28L21.98 35.12C23.12 35.06 25 35.47 25.93 34.8C26.47 34.32 26.22 33.52 26.24 32.89C26.22 32.22 26.45 31.4 25.94 30.85ZM55.78 29.79C55.9 36.11 53.32 41.71 49.47 46.59C49.46 46.59 49.46 46.61 49.45 46.61C37.46 60.52 14.2 57.28 6.74 40.47C-0.94 23.46 11.9 4.43 30.5 4.7L30.5 0.01C10.03 0.04 -4.34 18.79 1.18 38.45C7.88 61.34 38.04 67.69 53.14 49.14C57.64 43.73 59.93 36.83 59.98 29.83C58.58 29.83 57.19 29.78 55.78 29.79ZM49.45 46.6C49.46 46.6 49.46 46.59 49.47 46.58C49.48 46.57 49.48 46.56 49.45 46.6ZM28.56 11.55C29.39 11.12 30.78 10.63 31.35 9.9C32.01 9.03 32.13 7.68 32.55 6.67C32.98 5.51 33.55 4.4 34.23 3.38C35.02 2.2 35.96 1.12 37.02 0.19C35.2 3.08 36.21 6.62 37.83 9.27C38.71 10.43 39.8 11.23 41.27 11.33C39.97 10.15 39.08 9.06 38.49 7.41C41.92 8.31 46.06 9.86 47.94 13.07C48.87 14.66 48.8 16.17 50.02 17.66C51.05 18.6 52.48 19.14 53.56 20.02C53.64 20.11 53.64 20.14 53.65 20.26C52.99 22.58 50.87 25.28 48.38 25.87C47.26 26.11 46.38 25.65 45.31 25.39C44.54 25.21 43.76 25.07 42.97 24.97C41.74 24.8 40.48 24.85 39.25 24.73C39.27 24.73 39.28 24.72 39.29 24.71C35.56 24.87 33.06 22.74 32.35 19.12C32.16 21.92 33.64 24.78 36.36 25.73C37.6 26.33 40.98 26.05 42.04 26.23C39.62 26.82 38.4 29.56 39.33 31.82C39.78 33.03 40.49 34.15 41.05 35.31C44.6 41.82 41.04 49.74 35.06 53.39C41.51 47.95 40.45 39.51 33.81 34.78C32.17 33.27 30.26 32.04 28.6 30.55C25.71 28.1 21.91 23.78 22.38 19.71C22.66 16 25.39 13.2 28.56 11.55ZM40.86 14.9C42.41 15.39 42.75 16.7 44.5 16.93C45.45 16.98 46.39 16.83 47.34 16.86C47.29 16.82 47.24 16.79 47.19 16.75C46.76 16.45 46.44 16.04 46.24 15.56C45.87 14.66 45.64 13.97 44.71 13.79C44.25 13.7 43.78 13.76 43.35 13.95C42.53 14.32 41.86 14.84 40.86 14.9ZM46.46 1.64C43.57 2.26 40.65 3.97 38.94 6.43C38.94 6.43 41.58 7.38 42.69 7.87C43.39 4.94 44.05 3.53 46.46 1.64ZM45.28 15.28C45.53 14.46 44.24 14.21 44.03 14.99C43.85 15.83 45.03 16.1 45.28 15.28Z" fill="url(#paint_linear_25_3_0)" fill-opacity="1.000000" fill-rule="nonzero"/>
		<path id="Vector" d="M30.49 6.22C30.49 6.83 30.48 7.44 30.49 8.05C20.79 7.8 11.66 14.07 8.84 23.41C4.43 37.03 14.18 50.28 27.38 53.75C21.57 53.19 16 50.29 12.13 45.97C3.06 36.25 4.32 19.9 14.75 11.66C19.05 7.92 24.88 6.23 30.49 6.22ZM25.94 30.85C25.1 30.09 23.11 30.54 22 30.46C21.89 29.42 22.3 27.4 21.74 26.57C21.37 26.18 20.72 26.23 20.22 26.24C19.6 26.24 18.26 26.07 17.8 26.52C17.05 27.39 17.48 29.21 17.43 30.32C14 30.29 13.09 29.68 13.39 33.72C13.41 34.11 13.51 34.55 13.81 34.83C14.37 35.28 16.56 35.1 17.32 35.05L17.42 35.11C17.63 36.38 16.82 38.63 18.16 39.39C18.76 39.44 20.54 39.48 21.09 39.39C22.13 39.23 22.06 38.09 22.01 37.28L21.98 35.12C23.12 35.06 25 35.47 25.93 34.8C26.47 34.32 26.22 33.52 26.24 32.89C26.22 32.22 26.45 31.4 25.94 30.85ZM55.78 29.79C55.9 36.11 53.32 41.71 49.47 46.59C49.46 46.59 49.46 46.61 49.45 46.61C37.46 60.52 14.2 57.28 6.74 40.47C-0.94 23.46 11.9 4.43 30.5 4.7L30.5 0.01C10.03 0.04 -4.34 18.79 1.18 38.45C7.88 61.34 38.04 67.69 53.14 49.14C57.64 43.73 59.93 36.83 59.98 29.83C58.58 29.83 57.19 29.78 55.78 29.79ZM49.45 46.6C49.46 46.6 49.46 46.59 49.47 46.58C49.48 46.57 49.48 46.56 49.45 46.6ZM28.56 11.55C29.39 11.12 30.78 10.63 31.35 9.9C32.01 9.03 32.13 7.68 32.55 6.67C32.98 5.51 33.55 4.4 34.23 3.38C35.02 2.2 35.96 1.12 37.02 0.19C35.2 3.08 36.21 6.62 37.83 9.27C38.71 10.43 39.8 11.23 41.27 11.33C39.97 10.15 39.08 9.06 38.49 7.41C41.92 8.31 46.06 9.86 47.94 13.07C48.87 14.66 48.8 16.17 50.02 17.66C51.05 18.6 52.48 19.14 53.56 20.02C53.64 20.11 53.64 20.14 53.65 20.26C52.99 22.58 50.87 25.28 48.38 25.87C47.26 26.11 46.38 25.65 45.31 25.39C44.54 25.21 43.76 25.07 42.97 24.97C41.74 24.8 40.48 24.85 39.25 24.73C39.27 24.73 39.28 24.72 39.29 24.71C35.56 24.87 33.06 22.74 32.35 19.12C32.16 21.92 33.64 24.78 36.36 25.73C37.6 26.33 40.98 26.05 42.04 26.23C39.62 26.82 38.4 29.56 39.33 31.82C39.78 33.03 40.49 34.15 41.05 35.31C44.6 41.82 41.04 49.74 35.06 53.39C41.51 47.95 40.45 39.51 33.81 34.78C32.17 33.27 30.26 32.04 28.6 30.55C25.71 28.1 21.91 23.78 22.38 19.71C22.66 16 25.39 13.2 28.56 11.55ZM40.86 14.9C42.41 15.39 42.75 16.7 44.5 16.93C45.45 16.98 46.39 16.83 47.34 16.86C47.29 16.82 47.24 16.79 47.19 16.75C46.76 16.45 46.44 16.04 46.24 15.56C45.87 14.66 45.64 13.97 44.71 13.79C44.25 13.7 43.78 13.76 43.35 13.95C42.53 14.32 41.86 14.84 40.86 14.9ZM46.46 1.64C43.57 2.26 40.65 3.97 38.94 6.43C38.94 6.43 41.58 7.38 42.69 7.87C43.39 4.94 44.05 3.53 46.46 1.64ZM45.28 15.28C45.53 14.46 44.24 14.21 44.03 14.99C43.85 15.83 45.03 16.1 45.28 15.28Z" fill="#487CAB" fill-opacity="1.000000" fill-rule="nonzero"/>
	</g>
</svg>
