<svg width="18.000244" height="18.000000" viewBox="0 0 18.0002 18" fill="none" xmlns="http://www.w3.org/2000/svg" xmlns:xlink="http://www.w3.org/1999/xlink">
	<desc>
			Created with Pixso.
	</desc>
	<defs/>
	<path id="Vector" d="M13.68 11.9C13.09 11.32 12.36 11.32 11.77 11.9C11.33 12.34 10.88 12.79 10.44 13.24C10.32 13.36 10.22 13.39 10.08 13.3C9.79 13.15 9.48 13.02 9.2 12.85C7.91 12.03 6.83 10.99 5.87 9.81C5.39 9.23 4.97 8.6 4.68 7.9C4.62 7.76 4.63 7.66 4.74 7.55C5.19 7.12 5.62 6.67 6.06 6.23C6.67 5.62 6.67 4.9 6.06 4.28C5.71 3.93 5.36 3.58 5.01 3.23C4.65 2.87 4.3 2.51 3.93 2.15C3.35 1.58 2.61 1.58 2.03 2.16C1.58 2.6 1.15 3.05 0.69 3.49C0.27 3.89 0.05 4.38 0.01 4.95C-0.06 5.88 0.17 6.76 0.49 7.62C1.15 9.4 2.15 10.97 3.37 12.42C5.01 14.37 6.97 15.92 9.27 17.04C10.3 17.54 11.38 17.93 12.54 17.99C13.34 18.03 14.04 17.83 14.6 17.21C14.98 16.78 15.41 16.39 15.81 15.98C16.41 15.37 16.42 14.64 15.82 14.04C15.11 13.33 14.4 12.61 13.68 11.9Z" fill="#487CAB" fill-opacity="1.000000" fill-rule="evenodd"/>
	<path id="Vector" d="M12.96 8.92L14.35 8.68C14.13 7.41 13.53 6.26 12.62 5.35C11.66 4.39 10.44 3.78 9.1 3.59L8.9 4.98C9.94 5.13 10.88 5.6 11.63 6.34C12.33 7.04 12.8 7.94 12.96 8.92Z" fill="#487CAB" fill-opacity="1.000000" fill-rule="evenodd"/>
	<path id="Vector" d="M15.13 2.91C13.53 1.31 11.51 0.31 9.28 0L9.09 1.38C11.01 1.65 12.76 2.53 14.14 3.9C15.44 5.21 16.3 6.86 16.61 8.68L18 8.44C17.63 6.34 16.64 4.43 15.13 2.91Z" fill="#487CAB" fill-opacity="1.000000" fill-rule="evenodd"/>
</svg>
