<svg display="none">
    <defs>
        <g id="img-prev">
            <path xmlns="http://www.w3.org/2000/svg" fill="#487CAB" d="M16 32C24.82 32 32 24.82 32 16C32 7.17 24.82 0 16 0C7.17 0 0 7.17 0 16C0 24.82 7.17 32 16 32ZM11.05 15.05L17.72 8.39C17.98 8.13 18.32 8 18.66 8C19 8 19.34 8.13 19.6 8.39C20.13 8.91 20.13 9.75 19.6 10.27L13.88 16L19.6 21.72C20.13 22.24 20.13 23.08 19.6 23.6C19.08 24.13 18.24 24.13 17.72 23.6L11.05 16.94C10.53 16.42 10.53 15.57 11.05 15.05Z"/>
        </g>
        <g id="img-next">
            <path xmlns="http://www.w3.org/2000/svg" fill="#487CAB" d="M16 0C7.17 0 0 7.17 0 16C0 24.82 7.17 32 16 32C24.82 32 32 24.82 32 16C32 7.17 24.82 0 16 0ZM20.94 16.94L14.27 23.6C14.01 23.86 13.67 24 13.33 24C12.99 24 12.65 23.86 12.39 23.6C11.86 23.08 11.86 22.24 12.39 21.72L18.11 16L12.39 10.27C11.86 9.75 11.86 8.91 12.39 8.39C12.91 7.86 13.75 7.86 14.27 8.39L20.94 15.05C21.46 15.57 21.46 16.42 20.94 16.94Z"/>
        </g>
        <g id="img-timessvg">
            <path xmlns="http://www.w3.org/2000/svg" fill="#487CAB" d="M1.07 9.98C0.38 9.89 -0.09 9.25 0.01 8.57C0.71 3.68 5 0 9.99 0C12.48 0 14.81 0.91 16.63 2.53L17.74 1.42C18.26 0.89 19.16 1.26 19.16 2.01L19.16 5.83C19.16 6.29 18.79 6.66 18.33 6.66L14.51 6.66C13.76 6.66 13.39 5.76 13.92 5.24L14.86 4.3C13.51 3.14 11.81 2.5 9.99 2.5C6.24 2.5 3.01 5.26 2.48 8.92C2.39 9.54 1.86 10 1.25 10C1.19 10 1.13 9.99 1.07 9.98ZM18.92 10.01C18.24 9.91 17.61 10.39 17.51 11.07C16.98 14.73 13.75 17.5 9.99 17.5C8.18 17.5 6.48 16.85 5.13 15.69L6.07 14.75C6.6 14.23 6.23 13.33 5.48 13.33L1.66 13.33C1.2 13.33 0.83 13.7 0.83 14.16L0.83 17.98C0.83 18.73 1.73 19.1 2.25 18.57L3.36 17.46C5.18 19.08 7.51 20 9.99 20C14.99 20 19.28 16.31 19.98 11.42C20.08 10.74 19.6 10.1 18.92 10.01ZM9.99 5C9.3 5 8.74 5.55 8.74 6.25L8.74 9.77C8.74 10.19 8.96 10.59 9.31 10.82L11.81 12.44C12.03 12.58 12.26 12.64 12.49 12.64C12.9 12.64 13.3 12.44 13.54 12.07C13.92 11.49 13.75 10.72 13.18 10.34L11.25 9.09L11.25 6.25C11.25 5.55 10.69 5 10 5L9.99 5Z"/>
        </g>
    </defs>
</svg>