<svg width="14.086914" height="18.000000" viewBox="0 0 14.0869 18" fill="none" xmlns="http://www.w3.org/2000/svg" xmlns:xlink="http://www.w3.org/1999/xlink">
	<desc>
			Created with Pixso.
	</desc>
	<defs>
		<clipPath id="clip16_60">
			<rect id="OBJECTS" rx="0.000000" width="13.086957" height="17.000000" transform="translate(0.500000 0.500000)" fill="white" fill-opacity="0"/>
		</clipPath>
	</defs>
	<rect id="OBJECTS" rx="0.000000" width="13.086957" height="17.000000" transform="translate(0.500000 0.500000)" fill="#FFFFFF" fill-opacity="0"/>
	<g clip-path="url(#clip16_60)">
		<path id="Vector" d="M7.04 0C3.16 0 0 3.11 0 6.93C0 9.66 1.16 12.43 3.35 14.93C4.99 16.79 6.62 17.85 6.69 17.89C6.8 17.96 6.91 18 7.03 18C7.15 18 7.27 17.96 7.38 17.89C7.45 17.85 9.08 16.79 10.72 14.93C12.91 12.43 14.07 9.66 14.07 6.93C14.08 3.11 10.92 0 7.04 0ZM7.04 9.51C5.54 9.51 4.33 8.31 4.33 6.84C4.33 5.37 5.54 4.18 7.04 4.18C8.53 4.18 9.74 5.37 9.74 6.84C9.74 8.31 8.53 9.51 7.04 9.51Z" fill="#487CAB" fill-opacity="1.000000" fill-rule="nonzero"/>
	</g>
</svg>
