<svg width="15.500000" height="15.500977" viewBox="0 0 15.5 15.501" fill="none" xmlns="http://www.w3.org/2000/svg" xmlns:xlink="http://www.w3.org/1999/xlink">
	<desc>
			Created with Pixso.
	</desc>
	<defs/>
	<path id="Symbol" d="M15.5 7.75C15.5 12.03 12 15.5 7.75 15.5C5.9 15.53 4.18 14.87 2.87 13.81C2.53 13.53 2.5 13 2.81 12.68L3.15 12.34C3.43 12.06 3.87 12.03 4.15 12.28C5.15 13.06 6.37 13.5 7.75 13.5C10.9 13.5 13.5 10.93 13.5 7.75C13.5 4.59 10.9 2 7.75 2C6.21 2 4.81 2.59 3.78 3.56L5.37 5.15C5.68 5.46 5.46 6 5.03 6L0.5 6C0.21 6 0 5.78 0 5.5L0 0.96C0 0.53 0.53 0.31 0.84 0.62L2.37 2.15C3.78 0.84 5.65 0 7.75 0C12 0 15.46 3.46 15.5 7.75ZM9.84 10.21C9.56 10.53 9.09 10.59 8.78 10.34L6.75 8.75L6.75 4.5C6.75 4.09 7.06 3.75 7.5 3.75L8 3.75C8.4 3.75 8.75 4.09 8.75 4.5L8.75 7.78L10 8.78C10.34 9.03 10.4 9.5 10.12 9.81L9.84 10.21Z" fill="#487CAB" fill-opacity="1.000000" fill-rule="nonzero"/>
</svg>
