<svg width="35.000000" height="35.000000" viewBox="0 0 35 35" fill="none" xmlns="http://www.w3.org/2000/svg" xmlns:xlink="http://www.w3.org/1999/xlink">
	
	<defs>
		<filter id="filter_16_81_dd" x="0.000000" y="0.000000" width="35.000000" height="35.000000" filterUnits="userSpaceOnUse" color-interpolation-filters="sRGB">
			<feFlood flood-opacity="0" result="BackgroundImageFix"/>
			<feBlend mode="normal" in="SourceGraphic" in2="BackgroundImageFix" result="shape"/>
			<feColorMatrix in="SourceAlpha" type="matrix" values="0 0 0 0 0 0 0 0 0 0 0 0 0 0 0 0 0 0 127 0" result="hardAlpha"/>
			<feOffset dx="2.08571" dy="2.08571"/>
			<feGaussianBlur stdDeviation="1.04286"/>
			<feComposite in2="hardAlpha" operator="arithmetic" k2="-1" k3="1"/>
			<feColorMatrix type="matrix" values="0 0 0 0 1 0 0 0 0 1 0 0 0 0 1 0 0 0 0.5 0"/>
			<feBlend mode="normal" in2="shape" result="effect_innerShadow_1"/>
		</filter>
		<linearGradient x1="3.171865" y1="27.569836" x2="31.842190" y2="7.494667" id="paint_linear_16_81_0" gradientUnits="userSpaceOnUse">
			<stop stop-color="#0061C2"/>
			<stop offset="1.000000" stop-color="#4CBBFF"/>
		</linearGradient>
	</defs>
	<g filter="url(#filter_16_81_dd)">
		<path id="Vector" d="M0 17.5C0 27.16 7.83 35 17.5 35C27.16 35 35 27.16 35 17.5C35 7.83 27.16 0 17.5 0C7.83 0 0 7.83 0 17.5Z" fill="url(#paint_linear_16_81_0)" fill-opacity="1.000000" fill-rule="nonzero"/>
	</g>
	<path id="Vector" d="M17.42 23.52L18.71 23.52C18.71 23.52 19.1 23.48 19.3 23.26C19.48 23.07 19.48 22.7 19.48 22.7C19.48 22.7 19.45 20.97 20.26 20.71C21.05 20.46 22.07 22.39 23.14 23.13C23.96 23.69 24.58 23.56 24.58 23.56L27.46 23.52C27.46 23.52 28.97 23.43 28.25 22.25C28.19 22.15 27.84 21.37 26.11 19.77C24.3 18.09 24.54 18.36 26.72 15.46C28.05 13.7 28.58 12.62 28.41 12.16C28.25 11.72 27.28 11.83 27.28 11.83L24.04 11.85C24.04 11.85 23.79 11.82 23.62 11.93C23.44 12.03 23.33 12.28 23.33 12.28C23.33 12.28 22.82 13.64 22.13 14.81C20.69 17.26 20.11 17.39 19.87 17.24C19.32 16.89 19.46 15.81 19.46 15.05C19.46 12.68 19.82 11.68 18.76 11.43C18.4 11.34 18.14 11.28 17.24 11.28C16.08 11.26 15.1 11.28 14.55 11.55C14.18 11.73 13.89 12.13 14.07 12.16C14.28 12.18 14.77 12.29 15.02 12.64C15.36 13.09 15.34 14.11 15.34 14.11C15.34 14.11 15.53 16.9 14.9 17.25C14.46 17.49 13.86 17 12.57 14.78C11.91 13.64 11.41 12.37 11.41 12.37C11.41 12.37 11.32 12.14 11.14 12.02C10.93 11.86 10.64 11.81 10.64 11.81L7.56 11.83C7.56 11.83 7.1 11.85 6.93 12.05C6.77 12.22 6.91 12.6 6.91 12.6C6.91 12.6 9.33 18.24 12.06 21.09C14.57 23.7 17.42 23.53 17.42 23.53L17.42 23.52Z" fill="#FFFFFF" fill-opacity="1.000000" fill-rule="nonzero"/>
</svg>
