<svg width="35.000000" height="35.000000" viewBox="0 0 35 35" fill="none" xmlns="http://www.w3.org/2000/svg" xmlns:xlink="http://www.w3.org/1999/xlink">
	<desc>
			Created with Pixso.
	</desc>
	<defs>
		<filter id="filter_16_78_dd" x="0.000000" y="0.000000" width="35.000000" height="35.000000" filterUnits="userSpaceOnUse" color-interpolation-filters="sRGB">
			<feFlood flood-opacity="0" result="BackgroundImageFix"/>
			<feBlend mode="normal" in="SourceGraphic" in2="BackgroundImageFix" result="shape"/>
			<feColorMatrix in="SourceAlpha" type="matrix" values="0 0 0 0 0 0 0 0 0 0 0 0 0 0 0 0 0 0 127 0" result="hardAlpha"/>
			<feOffset dx="2.08571" dy="2.08571"/>
			<feGaussianBlur stdDeviation="1.04286"/>
			<feComposite in2="hardAlpha" operator="arithmetic" k2="-1" k3="1"/>
			<feColorMatrix type="matrix" values="0 0 0 0 1 0 0 0 0 1 0 0 0 0 1 0 0 0 0.5 0"/>
			<feBlend mode="normal" in2="shape" result="effect_innerShadow_1"/>
		</filter>
		<linearGradient x1="17.500000" y1="35.000000" x2="17.500000" y2="0.000000" id="paint_linear_16_78_0" gradientUnits="userSpaceOnUse">
			<stop stop-color="#20B038"/>
			<stop offset="1.000000" stop-color="#60D66A"/>
		</linearGradient>
	</defs>
	<g filter="url(#filter_16_78_dd)">
		<circle id="Ellipse 1139" cx="17.500000" cy="17.500000" r="17.500000" fill="url(#paint_linear_16_78_0)" fill-opacity="1.000000"/>
	</g>
	<path id="Vector" d="M28.46 16.53C28.46 22.05 23.95 26.53 18.38 26.53C16.61 26.53 14.95 26.08 13.51 25.29L7.93 27.06L9.75 21.7C8.83 20.19 8.3 18.42 8.3 16.53C8.3 11.01 12.82 6.53 18.38 6.53C23.95 6.53 28.46 11.01 28.46 16.53ZM18.38 8.12C13.71 8.12 9.91 11.89 9.91 16.53C9.91 18.37 10.51 20.07 11.52 21.46L10.46 24.58L13.72 23.55C15.06 24.43 16.66 24.94 18.38 24.94C23.05 24.94 26.85 21.17 26.85 16.53C26.85 11.89 23.05 8.12 18.38 8.12L18.38 8.12ZM23.47 18.83C23.41 18.73 23.24 18.67 23 18.55C22.75 18.43 21.53 17.83 21.31 17.75C21.08 17.67 20.92 17.63 20.75 17.87C20.59 18.12 20.12 18.67 19.97 18.83C19.83 19 19.68 19.02 19.44 18.9C19.19 18.77 18.39 18.51 17.45 17.68C16.71 17.03 16.22 16.23 16.07 15.98C15.93 15.74 16.06 15.6 16.18 15.48C16.29 15.37 16.43 15.19 16.55 15.05C16.68 14.91 16.72 14.81 16.8 14.64C16.88 14.48 16.84 14.34 16.78 14.22C16.72 14.09 16.22 12.89 16.02 12.39C15.81 11.91 15.61 11.92 15.46 11.92C15.32 11.92 15.05 11.97 15.05 11.97C15.05 11.97 14.56 12.03 14.33 12.27C14.1 12.52 13.47 13.11 13.47 14.32C13.47 15.52 14.35 16.69 14.47 16.85C14.6 17.02 16.18 19.57 18.69 20.55C21.21 21.53 21.21 21.21 21.66 21.16C22.11 21.12 23.12 20.57 23.33 20C23.53 19.43 23.53 18.94 23.47 18.83L23.47 18.83Z" fill="#FFFFFF" fill-opacity="1.000000" fill-rule="evenodd"/>
</svg>
